HIERARCHY
ROOT Hips
{
	OFFSET 0.00000 0.00000 0.00000
	CHANNELS 6 Xposition Yposition Zposition Zrotation Yrotation Xrotation 
	JOINT LHipJoint
	{
		OFFSET 0 0 0
		CHANNELS 3 Zrotation Yrotation Xrotation
		JOINT LeftHip
		{
			OFFSET 1.53139 -1.83434 0.76626
			CHANNELS 3 Zrotation Yrotation Xrotation
			JOINT LeftKnee
			{
				OFFSET 2.56112 -7.03663 0.00000
				CHANNELS 3 Zrotation Yrotation Xrotation
				JOINT LeftAnkle
				{
					OFFSET 2.59983 -7.14299 0.00000
					CHANNELS 3 Zrotation Yrotation Xrotation
					JOINT LeftToe
					{
						OFFSET 0.13742 -0.37757 2.00054
						CHANNELS 3 Zrotation Yrotation Xrotation
						End Site
						{
							OFFSET 0.00000 -0.00000 1.02897
						}
					}
				}
			}
		}
	}
	JOINT RHipJoint
	{
		OFFSET 0 0 0
		CHANNELS 3 Zrotation Yrotation Xrotation
		JOINT RightHip
		{
			OFFSET -1.40122 -1.83435 0.76627
			CHANNELS 3 Zrotation Yrotation Xrotation
			JOINT RightKnee
			{
				OFFSET -2.54052 -6.98003 0.00000
				CHANNELS 3 Zrotation Yrotation Xrotation
				JOINT RightAnkle
				{
					OFFSET -2.63179 -7.23079 0.00000
					CHANNELS 3 Zrotation Yrotation Xrotation
					JOINT RightToe
					{
						OFFSET -0.24131 -0.66299 2.03908
						CHANNELS 3 Zrotation Yrotation Xrotation
						End Site
						{
							OFFSET -0.00000 -0.00000 1.07391
						}
					}
				}
			}
		}
	}
	JOINT lowerback
	{
		OFFSET 0 0 0
		CHANNELS 3 Zrotation Yrotation Xrotation
		JOINT Chest
		{
			OFFSET 0.01174 2.10302 -0.29778
			CHANNELS 3 Zrotation Yrotation Xrotation
			JOINT Chest2
			{
				OFFSET 0.00772 2.13227 -0.01247
				CHANNELS 3 Zrotation Yrotation Xrotation
				JOINT lowerneck
				{
					OFFSET 0 0 0
					CHANNELS 3 Zrotation Yrotation Xrotation
					JOINT Neck
					{
						OFFSET -0.09219 1.60848 0.31481
						CHANNELS 3 Zrotation Yrotation Xrotation
						JOINT Head
						{
							OFFSET 0.13974 1.65456 -0.31134
							CHANNELS 3 Zrotation Yrotation Xrotation
							End Site
							{
								OFFSET 0.04742 1.69515 -0.14578
							}
						}
					}
				}
				JOINT LeftCollar
				{
					OFFSET 0 0 0
					CHANNELS 3 Zrotation Yrotation Xrotation
					JOINT LeftShoulder
					{
						OFFSET 3.24909 1.02882 -0.23993
CHANNELS 3 Zrotation Xrotation Yrotation
						JOINT LeftElbow
						{
OFFSET 0 -5.329550 -0.000000
CHANNELS 3 Zrotation Xrotation Yrotation
							JOINT LeftWrist
							{
OFFSET 0 -3.692320 -0.000000
CHANNELS 3 Zrotation Xrotation Yrotation
								JOINT lhand
								{
									OFFSET 0 0 0
CHANNELS 3 Zrotation Xrotation Yrotation
									JOINT LFingers
									{
OFFSET 0 -0.536600 -0.000000
CHANNELS 3 Zrotation Xrotation Yrotation
										End Site
										{
OFFSET 0 -0.432620 -0.000000
										}
									}
								}
								JOINT LThumb
								{
OFFSET 0 0.000000 0.000000
CHANNELS 3 Zrotation Xrotation Yrotation
									End Site
									{
OFFSET 0 -0.439220 0.439220
									}
								}
							}
						}
					}
				}
				JOINT RightCollar
				{
					OFFSET 0 0 0
					CHANNELS 3 Zrotation Yrotation Xrotation
					JOINT RightShoulder
					{
						OFFSET -3.21387 0.93002 -0.34594
CHANNELS 3 Zrotation Xrotation Yrotation
						JOINT RightElbow
						{
OFFSET 0 -5.234310 0.000000
CHANNELS 3 Zrotation Xrotation Yrotation
							JOINT RightWrist
							{
OFFSET 0 -3.553010 -0.000000
CHANNELS 3 Zrotation Xrotation Yrotation
								JOINT rhand
								{
									OFFSET 0 0 0
CHANNELS 3 Zrotation Xrotation Yrotation
									JOINT RFingers
									{
OFFSET 0 -0.772520 -0.000000
CHANNELS 3 Zrotation Xrotation Yrotation
										End Site
										{
OFFSET 0 -0.622830 -0.000000
										}
									}
								}
								JOINT RThumb
								{
OFFSET 0 0.000000 0.000000
CHANNELS 3 Zrotation Xrotation Yrotation
									End Site
									{
OFFSET 0 -0.632340 0.632340
									}
								}
							}
						}
					}
				}
			}
		}
	}
}
MOTION
Frames: 12
Frame Time: 0.008333333333333333
8.142500 17.654500 -15.428100 148.775000 85.297000 146.977000 0.000000 0.000000 0.000000 -15.126600 -5.278300 2.344400 1.157100 6.829300 19.210800 0.545200 -1.059000 -13.623600 1.513400 -7.769000 -22.014800 0.000000 0.000000 0.000000 2.215200 6.652500 -4.541200 -2.389600 -9.634400 27.800800 -0.375000 1.895800 -11.064300 -0.482700 4.455300 -12.361400 -7.381900 -1.087100 9.217900 -0.216800 -2.201400 0.332300 4.207100 -0.919700 -4.560600 -15.810900 -13.094400 -5.562000 11.388500 -18.999300 33.658700 4.407900 -8.569200 15.571600 0.000000 0.000000 0.000000 6.470700 5.866700 -8.939500 12.876600 -21.106200 2.408700 18.893400 16.989800 -25.958700 0.000000 0.000000 0.000000 -7.125000 0.000000 0.000000 -12.054200 56.800200 3.521400 0.000000 0.000000 0.000000 1.150600 3.141100 10.019700 -16.797800 -26.590500 -3.996400 -19.116900 3.696700 -7.208400 0.000000 0.000000 0.000000 7.125000 0.000000 -0.000000 5.608900 22.367200 3.066800
8.157433 17.639770 -15.323268 151.318962 85.164799 149.507239 0.000000 0.000000 0.000000 -14.682626 -5.855016 2.403335 1.188751 6.918782 19.474907 0.541709 -0.781702 -13.656119 1.569437 -7.904809 -22.425221 0.000000 0.000000 0.000000 2.658184 6.227381 -4.572722 -2.408114 -9.668993 27.911222 -0.417367 2.364340 -11.616277 -0.293359 3.482126 -9.624238 -7.273611 -1.098403 9.294723 -0.220895 -2.213228 0.310365 4.146542 -0.924638 -4.629538 -15.851812 -13.131462 -5.444670 11.495791 -19.091585 33.615520 4.447117 -8.606701 15.563868 0.000000 0.000000 0.000000 6.598784 5.955571 -8.734651 12.979859 -21.257698 2.446021 16.802161 16.174566 -25.747896 0.000000 0.000000 0.000000 -7.125000 0.000000 0.000000 -14.118257 56.157606 3.918784 0.000000 0.000000 0.000000 1.322311 3.213219 10.419147 -16.830877 -26.634270 -4.011190 -19.980730 4.556184 -6.611694 0.000000 0.000000 0.000000 7.125000 0.000000 0.000000 4.981022 22.955853 2.653642
8.175136 17.634405 -15.215626 153.415122 84.949884 151.655977 0.000000 0.000000 0.000000 -14.281507 -6.316194 2.466745 1.203342 6.959614 19.595843 0.521052 -0.577975 -13.448446 1.556314 -7.872852 -22.328796 0.000000 0.000000 0.000000 3.113809 5.581260 -4.809136 -2.445218 -9.737680 28.131230 -0.461084 2.467870 -12.213645 -0.385797 3.987736 -11.042183 -7.233082 -1.110295 9.309207 -0.226233 -2.229705 0.254620 4.121850 -0.930005 -4.696113 -16.014707 -13.116612 -5.319374 11.641263 -19.097202 33.597443 4.541541 -8.617238 15.573061 0.000000 0.000000 0.000000 6.694570 5.983891 -8.507618 13.027760 -21.327837 2.463402 17.752261 16.906869 -25.717002 0.000000 0.000000 0.000000 -7.125000 0.000000 0.000000 -13.119069 56.322342 3.685671 0.000000 0.000000 0.000000 1.336794 3.314839 11.007540 -16.832544 -26.636471 -4.011942 -20.326410 4.753742 -6.258345 0.000000 0.000000 0.000000 7.125000 0.000000 0.000000 4.729177 23.314670 2.479475
8.192044 17.628575 -15.109649 154.896282 84.703296 153.191357 0.000000 0.000000 0.000000 -13.936751 -6.733304 2.461569 1.222657 7.013227 19.754637 0.488507 -0.388763 -13.074790 1.413942 -7.519268 -21.263666 0.000000 0.000000 0.000000 3.532537 4.983194 -5.000629 -2.476284 -9.794569 28.314010 -0.506098 2.396465 -12.828073 -0.471776 4.405003 -12.218975 -7.186318 -1.109298 9.273827 -0.261692 -2.221725 0.257163 4.055976 -0.928124 -4.677581 -15.913599 -13.080776 -5.240487 11.691205 -19.067080 33.439095 4.554243 -8.593923 15.462821 0.000000 0.000000 0.000000 6.756857 5.870596 -8.365344 13.085772 -21.412686 2.484481 20.037690 18.023826 -25.805466 0.000000 0.000000 0.000000 -7.125000 0.000000 0.000000 -10.771654 56.889124 3.162604 0.000000 0.000000 0.000000 1.397946 3.307181 11.357279 -16.883685 -26.704216 -4.034900 -20.208427 4.356959 -6.452649 0.000000 0.000000 0.000000 7.125000 0.000000 0.000000 4.814747 23.113772 2.546859
8.206112 17.626070 -15.002082 156.264746 84.556984 154.555538 0.000000 0.000000 0.000000 -13.541960 -7.089540 2.453634 1.242924 7.069121 19.920351 0.445834 -0.147940 -12.563725 1.284264 -7.174202 -20.235727 0.000000 0.000000 0.000000 4.026526 4.627390 -5.094827 -2.506644 -9.849967 28.492202 -0.555098 2.253018 -13.480805 -0.483506 4.458455 -12.370212 -7.066925 -1.074329 9.317082 -0.315327 -2.167948 0.259899 3.927459 -0.903209 -4.711834 -15.854192 -13.030455 -5.048235 11.925943 -19.071584 33.131351 4.647377 -8.579973 15.294211 0.000000 0.000000 0.000000 6.831743 5.785239 -8.266158 13.170254 -21.536056 2.515499 21.432865 18.606221 -25.884891 0.000000 0.000000 0.000000 -7.125000 0.000000 0.000000 -9.327190 57.269065 2.819673 0.000000 0.000000 0.000000 1.599102 3.293664 11.445611 -16.915003 -26.745651 -4.049017 -20.122185 4.103922 -6.760507 0.000000 0.000000 0.000000 7.125000 0.000000 0.000000 4.876081 22.791563 2.615637
8.218315 17.628913 -14.890189 158.434756 84.459306 156.679382 0.000000 0.000000 0.000000 -13.037932 -7.392945 2.386183 1.269397 7.140950 20.133587 0.412470 0.266647 -12.232271 1.684954 -8.168838 -23.232607 0.000000 0.000000 0.000000 4.620889 4.047619 -5.209915 -2.526287 -9.885561 28.606895 -0.601494 2.318426 -14.040652 -0.508340 4.569544 -12.684915 -6.914057 -1.073105 9.448819 -0.293877 -2.160505 0.251869 3.867783 -0.899290 -4.799655 -16.018483 -13.001325 -4.835159 12.208649 -19.093515 32.836412 4.791872 -8.597565 15.171227 0.000000 0.000000 0.000000 6.838150 5.780610 -8.205104 13.323974 -21.759953 2.572214 21.410289 18.000699 -25.805169 0.000000 0.000000 0.000000 -7.125000 0.000000 0.000000 -9.313108 57.183243 2.795113 0.000000 0.000000 0.000000 1.661344 3.259895 11.648124 -16.872217 -26.689064 -4.029821 -19.994823 4.084456 -6.807049 0.000000 0.000000 0.000000 7.125000 0.000000 0.000000 4.969194 22.748366 2.670919
8.229033 17.631815 -14.776827 160.919554 84.386921 159.171409 0.000000 0.000000 0.000000 -12.450579 -7.679727 2.106710 1.318537 7.272439 20.525171 0.384289 0.567344 -11.928297 2.084904 -9.040389 -25.921869 0.000000 0.000000 0.000000 5.259993 3.341955 -5.390706 -2.518778 -9.871908 28.563032 -0.633820 2.462036 -14.400119 -0.446163 4.277000 -11.858543 -6.759636 -1.084183 9.533627 -0.246461 -2.164994 0.227621 3.834857 -0.901653 -4.875898 -15.913516 -13.015894 -4.676273 12.175252 -19.121505 32.654871 4.758570 -8.613813 15.032986 0.000000 0.000000 0.000000 6.788399 5.750316 -7.801974 13.500122 -22.015588 2.637849 20.659770 17.089409 -25.566381 0.000000 0.000000 0.000000 -7.125000 0.000000 0.000000 -9.998885 56.779203 2.906674 0.000000 0.000000 0.000000 1.643099 3.229774 11.959442 -16.829067 -26.631873 -4.010474 -19.625740 4.241958 -6.894500 0.000000 0.000000 0.000000 7.125000 0.000000 0.000000 5.239349 22.673615 2.826383
8.239874 17.632443 -14.660698 164.330793 84.460454 162.566013 0.000000 0.000000 0.000000 -11.709277 -7.972380 1.797146 1.389376 7.457247 21.077589 0.344919 0.895183 -11.454779 2.178000 -9.227267 -26.508909 0.000000 0.000000 0.000000 6.125227 3.041902 -5.410833 -2.489062 -9.818005 28.389386 -0.655054 2.324223 -14.672985 -0.288023 3.412350 -9.432254 -6.485205 -1.013200 9.597856 -0.206840 -2.043434 0.237695 3.708706 -0.846515 -4.922672 -15.720535 -13.108080 -4.764170 12.019655 -19.242428 32.867850 4.640183 -8.645825 15.130875 0.000000 0.000000 0.000000 6.820892 5.632533 -7.549956 13.656915 -22.242041 2.696963 20.640745 17.005699 -25.618610 0.000000 0.000000 0.000000 -7.125000 0.000000 0.000000 -10.043527 56.828495 2.930961 0.000000 0.000000 0.000000 1.697865 3.163647 12.268626 -16.769896 -26.553355 -3.983948 -19.305306 4.083248 -7.150663 0.000000 0.000000 0.000000 7.125000 0.000000 0.000000 5.471592 22.418887 2.984794
8.252364 17.635401 -14.538979 173.234970 84.645421 171.243449 0.000000 0.000000 0.000000 -10.366603 -8.127169 1.704456 1.472288 7.667029 21.707347 0.328081 1.077742 -11.265075 2.248535 -9.365168 -26.944735 0.000000 0.000000 0.000000 7.659192 2.974392 -5.078594 -2.443704 -9.734749 28.122122 -0.679428 2.058272 -15.006039 -0.108648 2.075380 -5.715512 -5.687758 -0.936930 9.858723 -0.023913 -1.861108 0.295516 3.435576 -0.771201 -5.045963 -15.757312 -13.161124 -4.805860 12.062933 -19.335971 33.059374 4.649803 -8.674321 15.265070 0.000000 0.000000 0.000000 6.904066 5.621352 -7.843347 13.850766 -22.520834 2.770765 21.235343 17.061874 -25.953521 0.000000 0.000000 0.000000 -7.125000 0.000000 0.000000 -9.571071 57.296040 2.900372 0.000000 0.000000 0.000000 1.827878 3.088578 12.355704 -16.670961 -26.421908 -3.939803 -18.926243 4.048227 -7.355858 0.000000 0.000000 0.000000 7.125000 0.000000 0.000000 5.746505 22.221764 3.162055
8.262797 17.638713 -14.415418 184.942518 84.678880 182.622753 0.000000 0.000000 0.000000 -8.712981 -8.199360 1.729725 1.556209 7.872624 22.328057 0.324478 1.007105 -11.171515 2.319716 -9.502280 -27.379702 0.000000 0.000000 0.000000 9.487238 2.946983 -4.602654 -2.395523 -9.645273 27.835664 -0.702036 1.631706 -15.358694 -0.026560 1.014142 -2.787956 -4.744222 -0.904772 10.191060 0.281821 -1.711054 0.409318 3.212495 -0.715536 -5.144349 -15.691908 -13.179505 -4.831911 12.066327 -19.369919 33.085053 4.633927 -8.676913 15.281694 0.000000 0.000000 0.000000 6.839597 5.562734 -7.939174 14.052586 -22.809650 2.848519 21.530344 16.927573 -26.118590 0.000000 0.000000 0.000000 -7.125000 0.000000 0.000000 -9.334222 57.528512 2.879753 0.000000 0.000000 0.000000 1.874422 2.933821 12.478576 -16.553995 -26.266000 -3.887916 -18.652009 4.229614 -7.526609 0.000000 0.000000 0.000000 7.125000 0.000000 0.000000 5.944646 22.056066 3.294575
8.269228 17.648707 -14.295226 191.611008 84.610806 189.155254 0.000000 0.000000 0.000000 -7.622917 -8.515384 1.667147 1.630875 8.050459 22.867555 0.293931 1.213298 -10.753149 2.247380 -9.362787 -26.937447 0.000000 0.000000 0.000000 10.772744 3.090339 -4.314646 -2.361793 -9.582163 27.634061 -0.717156 1.162177 -15.646345 -0.005049 0.454162 -1.247951 -4.280692 -0.869109 10.343839 0.482423 -1.602370 0.514843 3.148914 -0.672161 -5.134980 -15.557366 -13.214231 -4.937451 11.994062 -19.405511 33.048857 4.566342 -8.680305 15.264585 0.000000 0.000000 0.000000 6.688923 5.413053 -7.883254 14.276444 -23.128219 2.935972 21.962475 16.995859 -26.446168 0.000000 0.000000 0.000000 -7.125000 0.000000 0.000000 -9.026893 57.957985 2.877336 0.000000 0.000000 0.000000 1.877007 2.716768 12.810356 -16.469714 -26.153385 -3.850695 -18.632152 4.301145 -7.649178 0.000000 0.000000 0.000000 7.125000 0.000000 0.000000 5.957678 21.928650 3.319308
8.274981 17.664333 -14.176195 194.451117 84.575568 191.983536 0.000000 0.000000 0.000000 -7.017298 -9.064356 1.583317 1.691560 8.191528 23.297440 0.247042 1.762156 -10.201930 2.157603 -9.186905 -26.381754 0.000000 0.000000 0.000000 11.570859 3.065222 -4.277024 -2.348668 -9.557473 27.555195 -0.731240 0.960234 -15.859052 -0.012221 0.588571 -1.617836 -4.141826 -0.815449 10.448656 0.583651 -1.512263 0.549335 3.166298 -0.629271 -5.165710 -15.634509 -13.233948 -4.977943 12.074035 -19.442002 33.014998 4.600330 -8.695691 15.287780 0.000000 0.000000 0.000000 6.501889 5.360071 -7.827471 14.558470 -23.527188 3.047650 22.227922 16.974465 -26.769919 0.000000 0.000000 0.000000 -7.125000 0.000000 0.000000 -8.897648 58.347679 2.919907 0.000000 0.000000 0.000000 1.841783 2.593549 13.137314 -16.428211 -26.097774 -3.832414 -18.350778 4.410135 -7.804353 0.000000 0.000000 0.000000 7.125000 0.000000 0.000000 6.160229 21.780722 3.454951
